<?xml version="1.0" encoding="UTF-8"?>
<svg width="56px" height="56px" viewBox="0 0 56 56" version="1.1" xmlns="http://www.w3.org/2000/svg" xmlns:xlink="http://www.w3.org/1999/xlink">
    <!-- Generator: Sketch 57.1 (83088) - https://sketch.com -->
    <title>Gear icon</title>
    <desc>Created with Sketch.</desc>
    <g id="V2" stroke="none" stroke-width="1" fill="none" fill-rule="evenodd">
        <g id="Dashboard-1.3.2" transform="translate(-239.000000, -421.000000)" fill-rule="nonzero">
            <g id="Nav" transform="translate(139.000000, 420.000000)">
                <g id="Gear-icon" transform="translate(100.000000, 1.000000)">
                    <path d="M56,34.8255385 L56,21.1744615 L50.1523077,19.6172308 C49.9821538,19.1649231 49.7926154,18.7147692 49.588,18.2667692 L52.6227692,13.0243077 L42.9735385,3.37507692 L37.7310769,6.40984615 C37.2830769,6.20523077 36.8329231,6.01569231 36.3806154,5.84553846 L34.8255385,0 L21.1744615,0 L19.6172308,5.84769231 C19.1649231,6.01784615 18.7147692,6.20738462 18.2667692,6.412 L13.0264615,3.37507692 L3.37723077,13.0243077 L6.412,18.2667692 C6.20738462,18.7147692 6.01784615,19.1649231 5.84769231,19.6172308 L0,21.1744615 L0,34.8255385 L5.84769231,36.3827692 C6.01784615,36.8350769 6.20738462,37.2852308 6.412,37.7332308 L3.37723077,42.9756923 L13.0264615,52.6249231 L18.2689231,49.5901538 C18.7169231,49.7947692 19.1670769,49.9843077 19.6193846,50.1544615 L21.1744615,56 L34.8255385,56 L36.3827692,50.1523077 C36.8350769,49.9821538 37.2852308,49.7926154 37.7332308,49.588 L42.9756923,52.6227692 L52.6249231,42.9735385 L49.5901538,37.7310769 C49.7947692,37.2830769 49.9843077,36.8329231 50.1544615,36.3806154 L56,34.8255385 Z M28,40.9230769 C20.8621538,40.9230769 15.0769231,35.1378462 15.0769231,28 C15.0769231,20.8621538 20.8621538,15.0769231 28,15.0769231 C35.1378462,15.0769231 40.9230769,20.8621538 40.9230769,28 C40.9230769,35.1378462 35.1378462,40.9230769 28,40.9230769 Z" id="Shape" fill="#B6B6B6"></path>
                    <path d="M27.937845,42.9813 C31.2903864,42.9813 34.4602573,41.9046185 37.1079054,39.8651558 L34.4860461,36.4610368 C32.5948689,37.9159538 30.3319034,38.68317 27.937845,38.68317 C22.0128728,38.68317 17.19252,33.8628172 17.19252,27.937845 C17.19252,22.0128728 22.0128728,17.19252 27.937845,17.19252 C33.8628172,17.19252 38.68317,22.0128728 38.68317,27.937845 C38.68317,30.2695805 37.9503388,32.4852666 36.5641919,34.3463568 L40.0112922,36.9144895 C41.9540469,34.3055246 42.9813,31.2022747 42.9813,27.937845 C42.9813,19.6446032 36.2332359,12.89439 27.937845,12.89439 C19.6424541,12.89439 12.89439,19.6446032 12.89439,27.937845 C12.89439,36.2310868 19.6424541,42.9813 27.937845,42.9813 Z" id="Path" fill="#575757" transform="translate(27.937845, 27.937845) rotate(-44.000000) translate(-27.937845, -27.937845) "></path>
                </g>
            </g>
        </g>
    </g>
</svg>